# xmcd CD database file generated by Grip 3.0.4
# 
# Track frame offsets:
#       207
#       19980
#       39452
#       60137
#       79810
#       96312
#       116885
#       143312
#       164555
#       184305
#       202885
#       220352
#       248982
#       267067
# 
# Disc length: 4224 seconds
# 
# Revision: 2
# Processed by: cddbd v1.5PL3 Copyright (c) Steve Scherf et al.
# Submitted via: Grip 3.0.4
# 
DISCID=c2107e0e
DTITLE=Robert Pete Williams - When A Man Takes The Blues
DYEAR=1900
DGENRE=Blues
TTITLE0=When A Man Takes The Blues
TTITLE1=I Had Trouble
TTITLE2=All Night Long
TTITLE3=Dyin' Soul
TTITLE4=I Got The Blues So Bad
TTITLE5=Sinner Don't You Know
TTITLE6=Hot Springs Blues
TTITLE7=This Train Is Heaven Bound
TTITLE8=Santa Fe Blues
TTITLE9=Blue In Me
TTITLE10=Death Comes Creepin' In Your Room
TTITLE11=Wife And Farm Blues
TTITLE12=I Want To Die Easy
TTITLE13=Monologue
EXTD=
EXTT0=
EXTT1=
EXTT2=
EXTT3=
EXTT4=
EXTT5=
EXTT6=
EXTT7=
EXTT8=
EXTT9=
EXTT10=
EXTT11=
EXTT12=
EXTT13=
PLAYORDER=
